<svg xmlns="http://www.w3.org/2000/svg" viewBox="0 0 512 511" width="20" height="20">
	<style>
		tspan { white-space:pre }
		.shp0 { fill: #ffffff } 
	</style>
	<path id="Layer" class="shp0" d="M405.33 256.48C393.54 256.48 384 266.04 384 277.82L384 448.48C384 460.24 374.44 469.82 362.67 469.82L64 469.82C52.22 469.82 42.67 460.24 42.67 448.48L42.67 149.82C42.67 138.06 52.22 128.48 64 128.48L234.67 128.48C246.46 128.48 256 118.93 256 107.15C256 95.37 246.46 85.82 234.67 85.82L64 85.82C28.71 85.82 0 114.53 0 149.82L0 448.48C0 483.77 28.71 512.48 64 512.48L362.67 512.48C397.95 512.48 426.67 483.77 426.67 448.48L426.67 277.82C426.67 266.02 417.13 256.48 405.33 256.48ZM200.02 237.05C198.53 238.54 197.52 240.44 197.1 242.49L182.02 317.93C181.31 321.42 182.42 325.03 184.94 327.57C186.96 329.59 189.7 330.68 192.49 330.68C193.17 330.68 193.88 330.62 194.58 330.47L270 315.39C272.09 314.96 273.98 313.96 275.46 312.46L444.25 143.67L368.83 68.26L200.02 237.05ZM496.38 16.1C475.59 -4.7 441.75 -4.7 420.97 16.1L391.45 45.63L466.86 121.04L496.38 91.51C506.45 81.46 512 68.07 512 53.82C512 39.57 506.45 26.17 496.38 16.1Z" />
</svg>