<svg xmlns="http://www.w3.org/2000/svg" viewBox="0 0 1691 1698" width="20" height="20">
	<style>
		tspan { white-space:pre }
		.shp0 { fill: #ffffff } 
	</style>
	<path id="Layer" fill-rule="evenodd" class="shp0" d="M1686 1557C1686 1591.67 1673.33 1621.67 1648 1647C1622.67 1672.33 1592.67 1685 1558 1685C1522 1685 1492 1672.33 1468 1647L1125 1305C1005.67 1387.67 872.67 1429 726 1429C630.67 1429 539.5 1410.5 452.5 1373.5C365.5 1336.5 290.5 1286.5 227.5 1223.5C164.5 1160.5 114.5 1085.5 77.5 998.5C40.5 911.5 22 820.33 22 725C22 629.67 40.5 538.5 77.5 451.5C114.5 364.5 164.5 289.5 227.5 226.5C290.5 163.5 365.5 113.5 452.5 76.5C539.5 39.5 630.67 21 726 21C821.33 21 912.5 39.5 999.5 76.5C1086.5 113.5 1161.5 163.5 1224.5 226.5C1287.5 289.5 1337.5 364.5 1374.5 451.5C1411.5 538.5 1430 629.67 1430 725C1430 871.67 1388.67 1004.67 1306 1124L1649 1467C1673.67 1491.67 1686 1521.67 1686 1557ZM1174 725C1174 601.67 1130.17 496.17 1042.5 408.5C954.83 320.83 849.33 277 726 277C602.67 277 497.17 320.83 409.5 408.5C321.83 496.17 278 601.67 278 725C278 848.33 321.83 953.83 409.5 1041.5C497.17 1129.17 602.67 1173 726 1173C849.33 1173 954.83 1129.17 1042.5 1041.5C1130.17 953.83 1174 848.33 1174 725Z" />
</svg>