<svg xmlns="http://www.w3.org/2000/svg" viewBox="0 0 448 512" width="16" height="18">
	<style>
		tspan { white-space:pre }
		.shp0 { fill: #ffffff } 
	</style>
	<path id="Path 0" class="shp0" d="M210 0.35C209.72 0.63 206.57 1.33 203 1.9C199.43 2.47 192.45 4.1 187.5 5.51C182.55 6.92 173.55 10.48 167.5 13.42C161.45 16.37 152.9 21.45 148.5 24.73C144.1 28 137.39 33.79 133.59 37.59C129.79 41.39 124 48.1 120.73 52.5C117.45 56.9 112.37 65.45 109.42 71.5C106.48 77.55 102.9 86.55 101.48 91.5C100.05 96.45 98.24 105.22 97.46 111C96.68 116.78 96.04 124.42 96.04 128C96.04 131.57 96.68 139.22 97.46 145C98.24 150.78 100.05 159.55 101.48 164.5C102.9 169.45 106.48 178.45 109.42 184.5C112.37 190.55 117.45 199.1 120.73 203.5C124 207.9 129.79 214.61 133.59 218.41C137.39 222.21 144.1 228 148.5 231.27C152.9 234.55 161.45 239.63 167.5 242.58C173.55 245.52 182.55 249.1 187.5 250.52C192.45 251.95 201.22 253.76 207 254.54C212.78 255.32 220.43 255.96 224 255.96C227.57 255.96 235.22 255.32 241 254.54C246.78 253.76 255.55 251.95 260.5 250.52C265.45 249.1 274.45 245.52 280.5 242.58C286.55 239.63 295.1 234.55 299.5 231.27C303.9 228 310.61 222.21 314.41 218.41C318.21 214.61 324 207.9 327.27 203.5C330.55 199.1 335.63 190.55 338.58 184.5C341.52 178.45 345.1 169.45 346.52 164.5C347.95 159.55 349.76 150.78 350.54 145C351.32 139.22 351.96 131.57 351.96 128C351.96 124.42 351.32 116.78 350.54 111C349.76 105.22 347.95 96.45 346.52 91.5C345.1 86.55 341.52 77.55 338.58 71.5C335.63 65.45 330.55 56.9 327.27 52.5C324 48.1 318.21 41.39 314.41 37.59C310.61 33.79 303.9 28 299.5 24.73C295.1 21.45 286.55 16.37 280.5 13.42C274.45 10.48 265.45 6.92 260.5 5.5C255.55 4.09 249.03 2.46 246 1.87C242.97 1.29 233.75 0.59 225.5 0.32C217.25 0.05 210.28 0.06 210 0.35ZM116 289.51C110.78 290.22 103.8 291.51 100.5 292.36C97.2 293.22 91.35 295.09 87.5 296.53C83.65 297.96 76.67 301.17 72 303.65C67.33 306.12 60.13 310.58 56 313.54C51.88 316.51 44.56 322.89 39.74 327.72C34.91 332.55 28.39 340.1 25.23 344.5C22.07 348.9 17.4 356.55 14.85 361.5C12.3 366.45 8.83 374.55 7.14 379.5C5.45 384.45 3.16 393.9 2.04 400.5C0.33 410.63 0.01 416.98 0.01 441.25C0 464.8 0.29 471.04 1.63 475.75C2.52 478.91 4.27 483.52 5.51 486C6.75 488.48 9.78 492.75 12.24 495.5C14.7 498.25 18.46 501.73 20.61 503.24C22.75 504.74 27.76 507.33 31.75 508.99L39 512C347.17 512 410.17 511.66 410.5 511C410.77 510.45 411.79 510 412.75 510C413.71 510 417.43 508.6 421 506.89C425.15 504.91 429.7 501.57 433.6 497.64C436.96 494.26 440.89 489.14 442.35 486.25C443.81 483.36 445.68 478.41 446.51 475.25C447.68 470.77 448.01 463.15 448.01 440.75C448 416.27 447.7 410.25 445.95 400.25C444.82 393.79 442.53 384.45 440.86 379.5C439.18 374.55 435.57 366.23 432.84 361C430.1 355.77 425.31 347.96 422.18 343.64C419.06 339.31 412.85 332.11 408.38 327.64C403.92 323.16 396.72 316.94 392.38 313.82C388.05 310.69 380.23 305.9 375 303.16C369.77 300.43 361.45 296.82 356.5 295.14C351.55 293.46 343.45 291.36 338.5 290.46C333.55 289.57 322.52 288.58 314 288.25L298.5 287.67C280.68 294.31 270.55 297.49 264.5 299.02C258.45 300.54 248.89 302.29 243.25 302.89C237.61 303.5 228.95 304 224 304C219.05 304 210.61 303.53 205.25 302.95C199.89 302.37 190.32 300.63 184 299.08C177.68 297.53 167.55 294.4 161.5 292.12C150.64 288.03 150.34 287.98 138 288.09C131.13 288.15 121.22 288.79 116 289.51Z" />
</svg>